<svg xmlns="http://www.w3.org/2000/svg" class="svg-icon" style="width:1.091796875em;height:1em;vertical-align:middle;fill:currentColor;overflow:hidden" viewBox="0 0 1118 1024"><path d="M944.4 588.23a35.51 35.51 0 0 0 35.51-35.51 416.537 416.537 0 1 0-832.897 0 35.51 35.51 0 1 0 71.021 0 345.517 345.517 0 1 1 690.856 0 35.51 35.51 0 0 0 35.51 35.51z"/><path d="M559.29 0a559.467 559.467 0 0 0-330.248 1010.804 35.51 35.51 0 0 0 49.715-7.812 35.51 35.51 0 0 0-7.812-49.537 488.268 488.268 0 1 1 568.167 5.86 35.51 35.51 0 0 0 40.837 58.236A559.467 559.467 0 0 0 559.289 0z"/><path d="M617.882 443.88A132.987 132.987 0 0 0 461.636 481.7l-104.756-45.63a35.51 35.51 0 1 0-28.23 64.983l104.755 45.631A132.987 132.987 0 1 0 617.882 443.88z"/></svg>