<svg xmlns="http://www.w3.org/2000/svg" xml:space="preserve" width="200" height="200" viewBox="0 0 512 512"><path d="M508.388 376.602c-4.153-3.386-10.286-2.757-13.695 1.371-1.429 1.71-35.696 41.401-114.487-2.367-91.896-51.067-153.84-11.072-156.431-9.343-4.467 2.976-5.667 8.991-2.714 13.472 2.972 4.486 9.01 5.724 13.496 2.781 2.219-1.443 55.143-34.881 136.183 10.138 31.01 17.229 56.506 23.058 76.83 23.058 41.21 0 61.096-23.981 62.306-25.491 3.341-4.176 2.665-10.238-1.488-13.619zM508.388 435.117c-4.153-3.381-10.286-2.757-13.695 1.371-1.429 1.71-35.696 41.401-114.487-2.367-91.896-51.058-153.84-11.072-156.431-9.343-4.467 2.976-5.667 8.991-2.714 13.472 2.972 4.491 9.01 5.714 13.496 2.781 2.219-1.448 55.143-34.877 136.183 10.138 31.01 17.229 56.506 23.058 76.83 23.058 41.21 0 61.096-23.981 62.306-25.491 3.341-4.176 2.665-10.238-1.488-13.619z"/><path d="M248.689 115.793c-91.42 0-165.793 74.372-165.793 165.793 0 62.358 34.458 118.854 89.925 147.45a9.748 9.748 0 0 0 13.133-4.2c2.467-4.786.591-10.667-4.2-13.134-48.943-25.238-79.354-75.091-79.354-130.116 0-80.663 65.62-146.288 146.288-146.288s146.288 65.625 146.288 146.288c0 11.238-1.276 22.405-3.781 33.196-1.229 5.243 2.038 10.486 7.286 11.71 5.219 1.195 10.486-2.043 11.705-7.291 2.848-12.238 4.295-24.891 4.295-37.615.001-91.42-74.372-165.793-165.792-165.793zM487.626 276.582h-39.01c-5.391 0-9.753 4.367-9.753 9.753s4.362 9.753 9.753 9.753h39.01c5.391 0 9.753-4.367 9.753-9.753s-4.363-9.753-9.753-9.753zM424.539 110.612a9.749 9.749 0 0 0-13.791 0l-27.581 27.586c-3.81 3.81-3.81 9.986 0 13.791a9.72 9.72 0 0 0 6.895 2.857 9.718 9.718 0 0 0 6.895-2.857l27.581-27.586c3.811-3.81 3.811-9.986.001-13.791zM249.82 37.773a9.751 9.751 0 0 0-9.753 9.753v39.01c0 5.386 4.362 9.753 9.753 9.753s9.753-4.367 9.753-9.753v-39.01a9.75 9.75 0 0 0-9.753-9.753zM114.211 138.198 86.63 110.612a9.749 9.749 0 0 0-13.791 0c-3.81 3.805-3.81 9.981 0 13.791l27.581 27.586a9.72 9.72 0 0 0 6.896 2.857 9.72 9.72 0 0 0 6.895-2.857c3.81-3.805 3.81-9.981 0-13.791zM114.211 420.935a9.749 9.749 0 0 0-13.791 0l-27.581 27.586c-3.81 3.81-3.81 9.986 0 13.791a9.72 9.72 0 0 0 6.896 2.857 9.72 9.72 0 0 0 6.895-2.857l27.581-27.586c3.81-3.809 3.81-9.986 0-13.791zM48.763 276.582H9.753c-5.39 0-9.753 4.367-9.753 9.753s4.362 9.753 9.753 9.753h39.01c5.391 0 9.753-4.367 9.753-9.753s-4.363-9.753-9.753-9.753z"/></svg>