<svg xmlns="http://www.w3.org/2000/svg" xml:space="preserve" width="200" height="200" viewBox="0 0 512 512"><path d="M464.886 371.354c-59.463 0-88.283 19.073-113.713 35.908-29.896 19.759-53.468 35.376-126.315 11.106-140.595-46.861-200.75-35.67-203.231-35.183-6.256 1.252-10.29 7.31-9.078 13.577 1.201 6.256 7.207 10.392 13.565 9.197.544-.113 57.979-10.058 191.4 34.429 29.182 9.723 51.893 13.588 70.479 13.588 34.633 0 54.93-13.429 75.987-27.363 23.81-15.758 48.425-32.049 100.907-32.049 6.415 0 11.605-5.196 11.605-11.605-.001-6.409-5.191-11.605-11.606-11.605z"/><path d="M464.886 429.378c-59.463 0-88.283 19.073-113.713 35.908-29.896 19.764-53.468 35.375-126.315 11.106-140.595-46.861-200.75-35.676-203.231-35.183-6.256 1.252-10.29 7.31-9.078 13.577 1.201 6.256 7.207 10.386 13.565 9.197.544-.102 57.979-10.052 191.4 34.429C246.696 508.135 269.407 512 287.993 512c34.633 0 54.93-13.429 75.987-27.363 23.81-15.758 48.425-32.049 100.907-32.049 6.415 0 11.605-5.196 11.605-11.605-.001-6.409-5.191-11.605-11.606-11.605zM256 0C121.627 0 12.299 109.322 12.299 243.701c0 39.591 9.712 78.916 28.105 113.719 2.074 3.938 6.097 6.182 10.268 6.182 1.825 0 3.683-.431 5.406-1.343 5.666-2.992 7.842-10.013 4.839-15.685-16.625-31.471-25.408-67.045-25.408-102.874 0-121.577 98.913-220.49 220.491-220.49 121.579 0 220.491 98.913 220.491 220.491 0 31.93-6.675 62.722-19.821 91.518-2.663 5.831-.102 12.715 5.723 15.378 5.848 2.663 12.727.085 15.378-5.734C492.323 313.018 499.7 278.985 499.7 243.7 499.701 109.322 390.373 0 256 0z"/></svg>